<?xml version="1.0" encoding="utf-8"?>
<!-- Generator: Adobe Illustrator 22.1.0, SVG Export Plug-In . SVG Version: 6.00 Build 0)  -->
<svg version="1.1" id="Layer_1" xmlns="http://www.w3.org/2000/svg" xmlns:xlink="http://www.w3.org/1999/xlink" x="0px" y="0px"
	 viewBox="0 0 117.6 51.2" style="enable-background:new 0 0 117.6 51.2;" xml:space="preserve">
<style type="text/css">
	.st0{fill:#FF0000;}
</style>
<path class="st0" d="M25.7,51.2c11.1,0,20.3-6.9,24-16.8h8.2c0.2,0,0.7,0.2,1,0.2l4.7,4.2c0.5,0.5,1,0.5,1.5,0l6.9-6.2
	c0.5-0.5,1-0.5,1.5,0l6.9,6.2c0.5,0.5,1,0.5,1.5,0l6.9-6.2c0.5-0.5,1-0.5,1.5,0l6.9,6.2c0.5,0.5,1,0.5,1.5,0l4.7-4.2
	c0.2-0.2,0.5-0.2,1-0.2h5.7c0.5,0,1-0.2,1.2-0.5l5.9-7.4c0.5-0.5,0.5-1.2,0-2l-5.9-7.4c-0.2-0.2-0.7-0.5-1.2-0.5H49.7
	C46,6.9,36.6,0,25.7,0C11.6,0,0,11.4,0,25.7S11.6,51.2,25.7,51.2z M15.8,19.8c3.2,0,5.7,2.7,5.7,5.7c0,3.2-2.7,5.7-5.7,5.7
	c-3.2,0-5.7-2.7-5.7-5.7C10.1,22.3,12.6,19.8,15.8,19.8z"/>
</svg>
