<?xml version="1.0" encoding="utf-8"?>
<!-- Generator: Adobe Illustrator 22.1.0, SVG Export Plug-In . SVG Version: 6.00 Build 0)  -->
<svg version="1.1" id="Layer_1" xmlns="http://www.w3.org/2000/svg" xmlns:xlink="http://www.w3.org/1999/xlink" x="0px" y="0px"
	 viewBox="0 0 234.8 146" style="enable-background:new 0 0 234.8 146;" xml:space="preserve">
<style type="text/css">
	.st0{fill:#FF0000;}
</style>
<path class="st0" d="M228.9,60.4l-44-5.9l-21.5-37.9C157.4,6.4,146.5,0,134.8,0H77.4C63.6,0,51.2,8.7,46.5,21.5L34.9,53.7L5.7,59.9
	C2.2,60.6,0,63.6,0,67v41.8c0,4,3.2,7.2,7.2,7.2h17.3c1.2,16.8,15.3,29.9,32.4,29.9s31.2-13.4,32.4-29.9h56.2
	c1.2,16.8,15.3,29.9,32.4,29.9s31.2-13.4,32.4-29.9h17.3c4,0,7.2-3.2,7.2-7.2V67.5C235,63.8,232.3,60.9,228.9,60.4z M56.9,130.6
	c-9.4,0-17.1-7.7-17.1-17.1s7.7-17.1,17.1-17.1S74,104.2,74,113.6S66.6,130.6,56.9,130.6z M58.6,53.4c-1,0-1.7-1-1.5-2l8.4-22.8
	c1.7-4.9,6.4-8.2,11.6-8.2h10.1c0.7,0,1.5,0.5,1.5,1.2L91.5,52c0,0.7-0.5,1.5-1.5,1.5H58.6z M112.6,52.2L109.9,22
	c0-0.7,0.5-1.5,1.5-1.5h23.5c4.5,0,8.7,2.5,10.9,6.2l14.1,24.5c0.5,1-0.2,2.2-1.2,2.2h-44.8C113.1,53.4,112.6,52.9,112.6,52.2z
	 M178.1,130.6c-9.4,0-17.1-7.7-17.1-17.1s7.7-17.1,17.1-17.1c9.4,0,17.1,7.7,17.1,17.1S187.5,130.6,178.1,130.6z"/>
</svg>
